<svg id="Capa_1" enable-background="new 0 0 512 512" height="512" viewBox="0 0 512 512" width="512" xmlns="http://www.w3.org/2000/svg"><g><path d="m151.267 302.965h110.333v142h-110.333z" fill="#4d578c"/><path d="m378.61 302.82c-30.687 4.003-7.902-1.361-116.469 30h-262.141v-177.02c3.24-49.49 44.81-88.76 95.44-88.76h262.03v15c21.29 237.44 19.06 220.78 21.14 220.78z" fill="#fed843"/><path d="m452.807 162.035c0-52.427-42.584-95-95.333-95-51.773 0-94.04 41.341-95.304 92.635-.019.786 2.971 1.574 2.971 2.365v157.789h172.666c0-231.197 0-113.972 0-145.157h15z" fill="#303a6d"/><path d="m262.14 159.67h249.86v173.15h-249.86z" fill="#f0f7ff"/><path d="m387.34 159.67h124.66v173.15h-124.66z" fill="#dfe7f4"/><path d="m512 159.67v15.8l-124.66 85.94c-.42.295 9.325 6.805-125.2-85.94v-15.8z" fill="#4dc3ff"/><path d="m512 159.67v15.8l-124.66 85.94v-101.74z" fill="#00a3ee"/></g></svg>